<svg xmlns="http://www.w3.org/2000/svg" width="24" height="24" viewBox="0 0 24 24" fill="none">
  <path d="M12 15.8a3.8 3.8 0 1 0 0-7.6 3.8 3.8 0 0 0 0 7.6Z" stroke="#ffffff" stroke-width="2"/>
  <path d="M19 12a7.3 7.3 0 0 0-.1-1l2-1.2-2-3.4-2.3.8a7.9 7.9 0 0 0-1.7-1L14.5 3h-5L9.1 6.2a7.9 7.9 0 0 0-1.7 1L5 6.4 3 9.8 5 11a7.3 7.3 0 0 0 0 2l-2 1.2 2 3.4 2.3-.8a7.9 7.9 0 0 0 1.7 1L9.5 21h5l.4-3.2a7.9 7.9 0 0 0 1.7-1l2.3.8 2-3.4-2-1.2c.1-.3.1-.6.1-1Z"
        stroke="#ffffff" stroke-width="1.7" stroke-linejoin="round"/>
</svg>
